# xmcd CD database file
#
# Track frame offsets:
#	150
#	866
#	21678
#	47089
#	78779
#	113918
#	138065
#	162678
#	207604
#	224938
#	269986
#	308263
#
# Disc length: 4749 seconds
#
# Revision: 3
# Processed by: cddbd v1.5.1PL2 Copyright (c) Steve Scherf et al.
# Submitted via: CDex 1.51
#
DISCID=ae128b0c
DTITLE=Tinsley Ellis - Highway Man
DYEAR=2005
DGENRE=Blues-Rock
TTITLE0=Introduction
TTITLE1=To The Devil For A Dime
TTITLE2=Highwayman
TTITLE3=A Quitter Never Wins
TTITLE4=Real Bad Way
TTITLE5=Hell Or High Water
TTITLE6=The Next Miss Wrong
TTITLE7=The Last Song
TTITLE8=Leavin' Here
TTITLE9=Pawnbroker
TTITLE10=The Axe
TTITLE11=Double Eyed Whammy
EXTD=YEAR: 2005
EXTT0=
EXTT1=
EXTT2=
EXTT3=
EXTT4=
EXTT5=
EXTT6=
EXTT7=
EXTT8=
EXTT9=
EXTT10=
EXTT11=
PLAYORDER=
